<svg xmlns="http://www.w3.org/2000/svg" width="752pt" height="752pt" version="1.1" viewBox="0 0 752 752">
 <path d="m225.4 282.71c10.418-14.68 24.152-36.938 33.152-54.461l17.051-37.414c0.94531-1.8945 2.3672-2.8398 3.7891-3.7891 1.8945-0.47266 3.7891-0.47266 5.2109 0 5.6836 2.3672 13.262 7.5781 19.418 14.68l9.9453-14.207c2.3672-3.3164 6.6289-3.7891 9.4727-1.8945 0.47266 0.47266 15.156 9.9453 21.312 25.102 3.7891-0.47266 7.5781-0.94531 11.367-0.94531 3.3164 0 6.1562 2.8398 6.6289 6.6289l4.7344 56.828 44.516 74.824c12.785 4.7344 71.984 29.363 116.97 84.77 2.3672 2.8398 1.8945 7.5781-0.94531 9.9453-1.4219 0.94531-2.8398 1.4219-4.2617 1.4219-1.8945 0-4.2617-0.94531-5.6836-2.8398-47.359-58.25-112.24-80.98-113.19-80.98-1.4219-0.47266-2.8398-1.4219-3.7891-3.3164l-46.883-78.613c-0.47266-0.94531-0.94531-1.8945-0.94531-2.8398l-4.2617-51.621c-8.5234 0.94531-15.156 5.6836-19.891 13.734-11.84 20.363-8.5234 58.25 7.1055 81.93 0 0 0 0.47266 0.47266 0.47266 15.629 28.414 20.836 90.453 21.312 92.82 0.47266 3.7891-2.8398 7.1055-6.6289 7.5781-3.7891 0.47266-7.1055-2.3672-7.5781-6.6289 0 0-0.47266-6.6289-1.8945-15.629l-27.469-9.4727c-1.4219-0.47266-2.8398-1.4219-3.7891-2.8398 0-0.47266-17.996-26.992-29.836-44.043-2.3672-3.3164-1.4219-7.5781 1.4219-9.9453 19.891-15.156 21.312-38.832 22.258-56.355 0.94531-15.629-7.1055-26.992-13.734-33.625l-14.207 29.836c-7.5781 15.156-20.363 34.098-38.832 56.355-3.7891 4.7344-2.8398 12.312 0 17.523l75.773 139.71c3.3164 4.7344 8.5234 8.0508 14.207 9.4727 7.1055 1.4219 17.051 2.8398 28.414 4.7344 45.938 7.1055 115.55 17.523 165.75 53.516 3.3164 2.3672 3.7891 6.6289 1.4219 9.9453-1.4219 1.8945-3.7891 2.8398-5.6836 2.8398-1.4219 0-2.8398-0.47266-4.2617-1.4219-47.359-34.098-115.08-44.043-159.6-50.672-11.84-1.8945-21.785-3.3164-29.363-4.7344-9.4727-1.8945-17.523-7.5781-23.207-15.629l-0.47266-0.47266-74.359-139.24c-5.6836-10.891-5.6836-23.207 0.47266-31.73-6.6328-11.363-9-28.414-1.4219-39.305zm106.55-66.301c-2.3672-6.1562-7.1055-10.891-10.418-14.207l-8.5234 11.84s-0.47266 0.47266-0.47266 0.47266c2.8398 6.1562 3.7891 12.785 2.8398 20.363 0.47266-0.94531 0.94531-2.3672 1.8945-3.3164 3.7891-6.6289 9-11.84 14.68-15.152zm-35.043 123.6c9.4727 13.734 20.836 30.781 25.102 36.938l17.996 6.1562c-2.8398-18.941-8.0508-41.676-15.156-55.41-3.7891-5.6836-6.6289-12.312-9.4727-19.418-3.3164 11.371-8.5234 22.266-18.469 31.734zm-14.207-111.29c0.94531-1.8945 2.3672-3.3164 4.7344-3.7891 1.8945-0.47266 4.2617 0 5.6836 0.94531 0.47266 0.47266 3.7891 2.8398 8.0508 7.1055 1.4219-14.207-8.9961-24.152-16.574-28.887l-13.734 30.309c-8.9961 18.469-23.68 41.676-34.098 56.828-2.8398 3.7891-2.8398 11.367-0.47266 18.469 13.262-16.574 22.73-30.781 28.414-42.621z"/>
</svg>
